<svg version="1.0" xmlns="http://www.w3.org/2000/svg" viewBox="0 0 512.000000 512.000000" preserveAspectRatio="xMidYMid meet">
  <g transform="translate(0.000000,512.000000) scale(0.100000,-0.100000)" fill="#000000" stroke="none">
    <path d="M2330 4749 c-1014 -102 -1836 -915 -1955 -1936 -78 -667 155 -1334
632 -1809 336 -334 748 -542 1228 -621 154 -25 496 -25 650 0 390 64 753 223
1045 456 89 71 260 240 333 329 199 244 354 554 432 861 47 189 60 301 60 531
0 230 -13 342 -60 531 -190 755 -766 1357 -1513 1579 -265 79 -570 107 -852
79z m415 -419 c284 -33 556 -130 785 -280 95 -63 223 -164 270 -214 l24 -27
-612 -612 c-337 -337 -612 -619 -612 -627 0 -8 275 -290 612 -627 l612 -612
-29 -32 c-47 -49 -172 -147 -270 -212 -328 -216 -750 -318 -1143 -277 -793 84
-1430 673 -1573 1455 -31 170 -31 440 0 608 120 652 585 1183 1211 1381 106
34 279 70 375 79 88 8 265 6 350 -3z" fill="#000000" />
    <path d="M2240 3603 c-61 -22 -142 -104 -163 -167 -37 -109 -13 -211 68 -293
112 -112 278 -111 391 1 112 113 113 279 1 391 -81 81 -189 106 -297 68z" fill="#000000" />
  </g>
</svg>