<svg version="1.0" xmlns="http://www.w3.org/2000/svg" width="512.000000pt" height="512.000000pt" viewBox="0 0 512.000000 512.000000"
  preserveAspectRatio="xMidYMid meet">
  <g transform="translate(0.000000,512.000000) scale(0.100000,-0.100000)" fill="#ffffff" stroke="none">
    <path d="M2320 5110 c-793 -77 -1517 -526 -1935 -1200 -79 -128 -200 -380
-220 -459 -21 -79 -14 -135 26 -218 68 -141 239 -209 393 -157 64 22 149 101
178 167 141 319 266 506 470 703 691 668 1787 714 2538 107 92 -75 249 -236
314 -323 l48 -65 -168 -5 c-191 -7 -216 -14 -291 -83 -154 -142 -133 -383 45
-500 82 -55 124 -59 667 -55 435 3 484 5 528 22 66 25 149 103 178 168 l24 53
0 535 0 535 -24 53 c-31 69 -114 145 -183 168 -193 64 -392 -56 -424 -254 l-7
-42 -104 105 c-398 399 -895 648 -1458 731 -124 18 -467 26 -595 14z" />
    <path d="M224 2049 c-49 -14 -125 -69 -161 -117 -63 -83 -64 -93 -61 -663 l3
-514 26 -55 c56 -118 160 -184 289 -184 60 0 86 5 130 25 104 49 175 150 187
264 l6 55 104 -105 c370 -371 848 -622 1362 -714 571 -103 1176 -4 1683 276
361 199 683 497 911 843 85 130 231 423 253 509 39 153 -46 316 -193 371 -66
24 -161 26 -227 4 -64 -22 -149 -101 -178 -167 -140 -319 -270 -512 -480 -712
-275 -262 -601 -426 -988 -497 -165 -31 -494 -31 -660 0 -387 71 -725 242
-998 506 -86 82 -212 226 -212 240 0 3 46 6 103 6 221 0 322 47 395 185 23 43
27 62 27 140 0 78 -4 97 -27 140 -34 65 -90 118 -158 149 l-55 26 -525 -1
c-289 0 -539 -5 -556 -10z" />
  </g>
</svg>